<svg xmlns="http://www.w3.org/2000/svg" width="552" height="104" fill-rule="evenodd" xmlns:v="https://vecta.io/nano"><path fill="#5e7c8b" d="M535.575 33.94c10.443 0 16.425 5.79 16.425 17.847v36.168h-14.336v-33.32c0-5.696-2.563-8.544-7.405-8.544-3.418 0-7.405 2.563-9.21 5.886v35.978h-14.336V16h14.336v23.732h.38c3.038-3.133 7.975-5.79 14.146-5.79zm-77.66 27.72c0-18.89 10.254-28.384 24.78-28.384 8.64 0 14.906 2.943 18.513 7.784l-9.59 9.113c-.76-1.33-3.513-5.126-8.924-5.126-6.17 0-10.16 3.797-10.16 15.473 0 11.39 3.323 16.707 10.064 16.707 4.747 0 7.785-2.848 9.114-5.22l9.114 8.45C497.79 84.538 492.662 89 481.27 89c-14.526 0-23.355-7.974-23.355-27.34zm-13.387 11.202l6.266 10.157c-4.177 3.417-9.4 5.98-19.653 5.98-16.9 0-25.54-9.493-25.54-28.004 0-17.372 9.684-27.72 25.16-27.72 13.67 0 21.552 8.638 21.552 21.74 0 2.753-.095 5.41-.665 9.588h-31.995c.2 8.45 3.988 13.1 13.102 13.1 5.79 0 9.78-2.753 11.773-4.84zM430.38 44.1c-6.456 0-10.254 4.746-10.443 11.012h18.893v-1.424c0-6.265-2.658-9.588-8.45-9.588zM389.177 88.43c-9.21 0-15.855-4.65-15.855-17.657V45.238h-6.836v-8.923l6.93-2.848 4.937-12.625h9.114v13.48h13.387v10.917h-13.387v25.915c0 3.702 2.09 5.6 5.6 5.6 2.28 0 5.222-.76 7.3-2.373l3.703 10.727c-1.804 1.33-5.98 3.322-14.906 3.322zM361.36 50.84v37.117h-14.336v-34.08c0-5.506-2.563-8.733-7.405-8.733-4.177 0-7.595 2.468-9.21 6.36v36.453h-14.336V34.32h11.203l2.848 5.03h.38c3.228-3.892 8.83-6.36 14.43-6.36 10.443 0 16.425 5.79 16.425 17.847zM283.128 89c-18.418 0-24.2-11.012-24.2-27.624 0-16.518 6.93-28.004 24.685-28.004 18.513 0 24.305 11.012 24.305 27.624 0 16.518-7.026 28.004-24.78 28.004zm-9.494-28.194c0 11.107 2.753 16.992 9.97 16.992 7.3 0 9.59-5.316 9.59-16.233 0-11.107-2.753-16.992-10.16-16.992-6.55 0-9.4 5.316-9.4 16.233zm-54.97-20.505c2.753-3.702 8.165-7.215 15.76-7.215 10.538 0 16.52 5.6 16.52 17.847v37.022h-14.336v-34.46c0-6.265-3.228-8.354-6.93-8.354-3.608 0-7.3 2.373-8.924 6.17v36.642h-14.336V54.54c0-6.265-2.658-9.398-7.595-9.398-3.513 0-6.93 2.848-8.26 6.36v36.453h-14.336V34.32h11.773l2.374 5.03h.38c3.323-4.272 8.83-6.265 14.146-6.265 8.165 0 11.488 3.417 13.387 7.215h.38zM160 72.862l6.266 10.157c-4.177 3.417-9.4 5.98-19.653 5.98-16.9 0-25.54-9.493-25.54-28.004 0-17.372 9.684-27.72 25.16-27.72 13.67 0 21.552 8.638 21.552 21.74 0 2.753-.095 5.41-.665 9.588h-31.995c.2 8.45 3.988 13.1 13.102 13.1 5.79 0 9.78-2.753 11.773-4.84zM145.844 44.1c-6.456 0-10.254 4.746-10.443 11.012h18.893v-1.424c0-6.265-2.658-9.588-8.45-9.588zM96 16h14.336v55.06c0 3.987 1.804 5.316 4.462 5.316 1.044 0 1.52-.095 1.994-.2V87.48c-1.71.664-3.703 1.33-6.836 1.33C101.222 88.8 96 83.684 96 74.76V16z"/><path fill="#c7d900" d="M12 104h22c18.778 0 34-15.222 34-34V36H34C15.222 36 0 51.222 0 70v22c0 6.627 5.373 12 12 12z"/><path fill="#5eb131" d="M36 0h16c8.837 0 16 7.162 16 16v16H52c-8.837 0-16-7.162-16-16V0z"/></svg>