<svg width="457" height="87" viewBox="0 0 457 87" fill="none" xmlns="http://www.w3.org/2000/svg">
<path d="M443.409 28.1353C452.051 28.1353 457 32.9389 457 42.9273V72.9115H445.122V45.2909C445.122 40.5636 443.01 38.1999 438.993 38.1999C436.157 38.1999 432.864 40.3158 431.36 43.0798V72.9115H419.483V13.248H431.36V32.9198H431.684C434.216 30.3465 438.308 28.1353 443.409 28.1353ZM379.111 51.1238C379.111 35.455 387.6 27.5825 399.63 27.5825C406.787 27.5825 411.964 30.0224 414.953 34.0445L407.015 41.5929C406.387 40.4874 404.103 37.3422 399.63 37.3422C394.529 37.3422 391.217 40.4874 391.217 50.1708C391.217 59.6063 393.977 64.0287 399.554 64.0287C403.475 64.0287 406.006 61.665 407.091 59.7017L414.629 66.6973C412.117 70.0903 407.872 73.7883 398.431 73.7883C386.42 73.7883 379.111 67.1739 379.111 51.1238ZM368.033 60.4069L373.229 68.8323C369.765 71.6725 365.444 73.7883 356.954 73.7883C342.964 73.7883 335.807 65.9158 335.807 50.571C335.807 36.1603 343.821 27.5825 356.631 27.5825C367.956 27.5825 374.466 34.7498 374.466 45.615C374.466 47.9024 374.39 50.0945 373.914 53.5638H347.418C347.57 60.5594 350.711 64.429 358.268 64.429C363.084 64.429 366.377 62.1416 368.033 60.4069ZM356.326 36.5606C350.978 36.5606 347.837 40.4873 347.685 45.6912H363.331V44.5094C363.312 39.3246 361.123 36.5606 356.326 36.5606ZM322.197 73.3118C314.565 73.3118 309.064 69.4613 309.064 58.6723V37.4946H303.41V30.0987L309.14 27.735L313.232 17.2701H320.77V28.4403H331.848V37.4946H320.77V58.9773C320.77 62.0463 322.502 63.6284 325.414 63.6284C327.299 63.6284 329.735 62.9993 331.467 61.665L334.532 70.5669C333.047 71.6725 329.602 73.3118 322.197 73.3118ZM299.185 42.1457V72.9115H287.307V44.6619C287.307 40.1061 285.194 37.4184 281.178 37.4184C277.714 37.4184 274.897 39.458 273.545 42.6985V72.9306H261.668V28.4594H270.938L273.298 32.6339H273.621C276.286 29.4125 280.931 27.3538 285.575 27.3538C294.217 27.3538 299.185 32.1573 299.185 42.1457ZM234.41 73.7883C219.164 73.7883 214.367 64.6577 214.367 50.876C214.367 37.1897 220.096 27.6588 234.81 27.6588C250.133 27.6588 254.929 36.7894 254.929 50.571C254.929 64.2765 249.105 73.7883 234.41 73.7883ZM226.549 50.4186C226.549 59.6254 228.833 64.5052 234.81 64.5052C240.863 64.5052 242.747 60.1019 242.747 51.0476C242.747 41.8407 240.463 36.9609 234.334 36.9609C228.909 36.9609 226.549 41.3642 226.549 50.4186ZM181.037 33.4154C183.321 30.3465 187.795 27.43 194.095 27.43C202.813 27.43 207.781 32.0811 207.781 42.222V72.9115H195.903V44.3378C195.903 39.134 193.239 37.4184 190.174 37.4184C187.186 37.4184 184.121 39.3818 182.789 42.527V72.9115H170.911V45.2147C170.911 40.0108 168.703 37.4184 164.63 37.4184C161.717 37.4184 158.9 39.7821 157.796 42.6985V72.9306H145.919V28.4594H155.664L157.625 32.6339H157.949C160.709 29.0884 165.258 27.43 169.655 27.43C176.412 27.43 179.172 30.2702 180.733 33.4154H181.037ZM132.461 60.4069L137.658 68.8323C134.193 71.6725 129.873 73.7883 121.383 73.7883C107.393 73.7883 100.236 65.9158 100.236 50.571C100.236 36.1603 108.249 27.5825 121.06 27.5825C132.385 27.5825 138.895 34.7498 138.895 45.615C138.895 47.9024 138.819 50.0945 138.343 53.5638H111.847C111.999 60.5594 115.14 64.429 122.697 64.429C127.512 64.429 130.805 62.1416 132.461 60.4069ZM120.736 36.5606C115.387 36.5606 112.247 40.4873 112.094 45.6912H127.741V44.5094C127.741 39.3246 125.533 36.5606 120.736 36.5606ZM79.4691 13.2671H91.3466V58.9201C91.3466 62.2178 92.8313 63.3234 95.0393 63.3234C95.8959 63.3234 96.2956 63.2471 96.6953 63.1709V72.5302C95.2868 73.083 93.6308 73.6358 91.0421 73.6358C83.809 73.6358 79.4882 69.3851 79.4882 61.9891L79.4691 13.2671Z" fill="#567D83"/>
<path d="M9.93603 86.2357H28.1521C43.7033 86.2357 56.3041 73.6168 56.3041 58.0433V29.8508H28.1521C12.6009 29.8508 0 42.4698 0 58.0433V76.2854C0 81.7752 4.43505 86.2357 9.93603 86.2357Z" fill="#C7D900"/>
<path d="M29.808 0H43.056C50.3653 0 56.304 5.92822 56.304 13.267V26.534H43.056C35.7468 26.534 29.808 20.6058 29.808 13.267V0Z" fill="#5EB031"/>
</svg>
